<svg xmlns="http://www.w3.org/2000/svg" xmlns:xlink="http://www.w3.org/1999/xlink" width="500" zoomAndPan="magnify" viewBox="0 0 375 374.999991" height="500" preserveAspectRatio="xMidYMid meet" version="1.0"><defs><clipPath id="c2e6173290"><path d="M 125 156 L 249 156 L 249 288.789062 L 125 288.789062 Z M 125 156 " clip-rule="nonzero"/></clipPath><clipPath id="5a2b0447bf"><path d="M 174 86.289062 L 237 86.289062 L 237 270 L 174 270 Z M 174 86.289062 " clip-rule="nonzero"/></clipPath></defs><g clip-path="url(#c2e6173290)"><path fill="#000000" d="M 238.976562 288.789062 L 135.734375 288.789062 C 130.261719 288.789062 125.8125 284.328125 125.8125 278.851562 L 125.8125 156.058594 L 131.273438 156.058594 L 131.273438 278.851562 C 131.273438 281.316406 133.28125 283.324219 135.734375 283.324219 L 238.976562 283.324219 C 241.429688 283.324219 243.4375 281.316406 243.4375 278.851562 L 243.4375 156.058594 L 248.898438 156.058594 L 248.898438 278.851562 C 248.898438 284.328125 244.449219 288.789062 238.976562 288.789062 " fill-opacity="1" fill-rule="nonzero"/></g><path fill="#000000" d="M 246.679688 158.789062 L 219.546875 158.789062 L 219.546875 153.324219 L 246.679688 153.324219 C 248.878906 153.324219 250.949219 152.472656 252.496094 150.914062 C 254.050781 149.355469 254.90625 147.292969 254.90625 145.09375 C 254.90625 140.578125 251.226562 136.898438 246.679688 136.898438 L 225.117188 136.898438 L 225.117188 131.429688 L 246.679688 131.429688 C 254.234375 131.429688 260.371094 137.558594 260.371094 145.09375 C 260.371094 148.757812 258.949219 152.195312 256.367188 154.777344 C 253.773438 157.371094 250.339844 158.789062 246.679688 158.789062 " fill-opacity="1" fill-rule="nonzero"/><path fill="#000000" d="M 203.253906 158.789062 L 128 158.789062 C 120.464844 158.789062 114.34375 152.652344 114.34375 145.09375 C 114.34375 141.445312 115.75 138.015625 118.320312 135.445312 C 120.902344 132.851562 124.351562 131.429688 128 131.429688 L 208.8125 131.429688 L 208.8125 136.898438 L 128 136.898438 C 125.8125 136.898438 123.742188 137.75 122.183594 139.308594 C 120.648438 140.847656 119.804688 142.894531 119.804688 145.09375 C 119.804688 149.640625 123.476562 153.324219 128 153.324219 L 203.253906 153.324219 L 203.253906 158.789062 " fill-opacity="1" fill-rule="nonzero"/><path fill="#000000" d="M 222.351562 272.574219 L 152.359375 272.574219 C 146.875 272.574219 142.425781 268.113281 142.425781 262.636719 L 142.425781 220.609375 L 186.148438 220.609375 L 186.148438 226.074219 L 147.886719 226.074219 L 147.886719 262.636719 C 147.886719 265.101562 149.894531 267.109375 152.359375 267.109375 L 222.351562 267.109375 C 224.808594 267.109375 226.800781 265.101562 226.800781 262.636719 L 226.800781 226.074219 L 202.421875 226.074219 L 202.421875 220.609375 L 232.265625 220.609375 L 232.265625 262.636719 C 232.265625 268.113281 227.816406 272.574219 222.351562 272.574219 " fill-opacity="1" fill-rule="nonzero"/><g clip-path="url(#5a2b0447bf)"><path fill="#000000" d="M 226.34375 92.03125 C 224.039062 92.03125 221.9375 93.589844 221.351562 95.914062 L 180.152344 257.960938 C 179.8125 259.296875 180.027344 260.683594 180.730469 261.867188 C 181.433594 263.054688 182.554688 263.886719 183.886719 264.226562 C 185.222656 264.570312 186.609375 264.367188 187.792969 263.660156 C 188.976562 262.957031 189.820312 261.835938 190.160156 260.503906 L 231.347656 98.464844 C 232.039062 95.703125 230.375 92.894531 227.613281 92.191406 C 227.195312 92.082031 226.757812 92.03125 226.34375 92.03125 Z M 185.179688 269.863281 C 184.304688 269.863281 183.40625 269.746094 182.53125 269.523438 C 179.789062 268.828125 177.476562 267.097656 176.023438 264.65625 C 174.582031 262.222656 174.167969 259.359375 174.863281 256.605469 L 216.058594 94.570312 C 216.75 91.816406 218.480469 89.511719 220.914062 88.058594 C 223.355469 86.605469 226.214844 86.191406 228.96875 86.894531 C 234.632812 88.335938 238.078125 94.132812 236.640625 99.8125 L 195.453125 261.847656 C 194.75 264.601562 193.019531 266.90625 190.589844 268.359375 C 188.925781 269.351562 187.066406 269.863281 185.179688 269.863281 " fill-opacity="1" fill-rule="nonzero"/></g><path fill="#000000" d="M 168.941406 249.316406 L 154.238281 249.316406 L 154.238281 243.847656 L 168.941406 243.847656 L 168.941406 249.316406 " fill-opacity="1" fill-rule="nonzero"/><path fill="#000000" d="M 220.453125 249.316406 L 205.75 249.316406 L 205.75 243.847656 L 220.453125 243.847656 L 220.453125 249.316406 " fill-opacity="1" fill-rule="nonzero"/></svg>